# AST/ASF file generated using VICON BodyLanguage
# -----------------------------------------------
:version 1.10
:name VICON
:units
  mass 1.0
  length 0.45
  angle deg
:documentation
   .ast/.asf automatically generated from VICON data using
   VICON BodyBuilder and BodyLanguage model FoxedUp or BRILLIANT.MOD
:root
   order TX TY TZ RX RY RZ
   axis XYZ
   position 0 0 0  
   orientation 0 0 0 
:bonedata
  begin
     id 1 
     name lhipjoint
     direction 0.573633 -0.743009 0.344793 
     length 2.46257 
     axis 0 0 0  XYZ
  end
  begin
     id 2 
     name lfemur
     direction 0.34202 -0.939693 0  
     length 7.3842  
     axis 0 0 20  XYZ
    dof rx ry rz
    limits (-160.0 20.0)
           (-70.0 70.0)
           (-60.0 70.0)
  end
  begin
     id 3 
     name ltibia
     direction 0.34202 -0.939693 0   
     length 7.50407   
     axis 0 0 20   XYZ
    dof rx
    limits (-10.0 170.0)
  end
  begin
     id 4 
     name lfoot
     direction 0.110749 -0.304281 0.946123   
     length 1.95925   
     axis -90 7.62852e-016 20   XYZ
    dof rx rz
    limits (-45.0 90.0)
           (-70.0 20.0)
  end
  begin
     id 5 
     name ltoes
     direction 1.53554e-011 -4.21843e-011 1   
     length 0.978318   
     axis -90 7.62852e-016 20   XYZ
    dof rx
    limits (-90.0 20.0)
  end
  begin
     id 6 
     name rhipjoint
     direction -0.488109 -0.791693 0.367385   
     length 2.31113  
     axis 0 0 0  XYZ 
  end
  begin
     id 7 
     name rfemur
     direction -0.34202 -0.939693 0   
     length 7.40965   
     axis 0 0 -20   XYZ
    dof rx ry rz
    limits (-160.0 20.0)
           (-70.0 70.0)
           (-70.0 60.0)
  end
  begin
     id 8 
     name rtibia
     direction -0.34202 -0.939693 0   
     length 7.55548   
     axis 0 0 -20   XYZ
    dof rx
    limits (-10.0 170.0)
 end
 begin
     id 9 
     name rfoot
     direction -0.127594 -0.350561 0.927808   
     length 2.07199  
     axis -90 -7.62852e-016 -20   XYZ
    dof rx rz
    limits (-45.0 90.0)
           (-20.0 70.0)
  end
  begin
     id 10 
     name rtoes
     direction -1.53542e-011 -4.21909e-011 1   
     length 1.02667   
     axis -90 -7.62852e-016 -20   XYZ
    dof rx
    limits (-90.0 20.0)
  end
  begin
     id 11 
     name lowerback
     direction -0.0103342 0.997298 -0.0727278   
     length 2.02836   
     axis 0 0 0   XYZ
    dof rx ry rz
    limits (-20.0 45.0)
           (-30.0 30.0)
           (-30.0 30.0)
  end
  begin
     id 12 
     name upperback
     direction 0.0171146 0.999786 -0.011606   
     length 2.03179   
     axis 0 0 0   XYZ
    dof rx ry rz
    limits (-20.0 45.0)
           (-30.0 30.0)
           (-30.0 30.0)
  end
  begin
     id 13 
     name thorax
     direction 0.0216927 0.999513 0.0224343   
     length 2.03882   
     axis 0 0 0   XYZ
    dof rx ry rz
    limits (-20.0 45.0)
           (-30.0 30.0)
           (-30.0 30.0)
  end
  begin
     id 14 
     name lowerneck
     direction 0.000989287 0.993907 0.110221   
     length 1.75428   
     axis 0 0 0   XYZ
    dof rx ry rz
    limits (-20.0 45.0)
           (-30.0 30.0)
           (-30.0 30.0)
  end
  begin
     id 15 
     name upperneck
     direction -0.0172474 0.994813 -0.100253   
     length 1.77058   
     axis 0 0 0   XYZ
    dof rx ry rz
    limits (-20.0 45.0)
           (-30.0 30.0)
           (-30.0 30.0)
  end
  begin
     id 16
     name head
     direction -0.00486455 0.99894 -0.0457663  
     length 1.77427  
     axis 0 0 0   XYZ
    dof rx ry rz
    limits (-20.0 45.0)
           (-30.0 30.0)
           (-30.0 30.0)
  end
  begin
     id 17 
     name lclavicle
     direction 0.927314 0.333734 -0.169441  
     length 3.97584  
     axis 0 0 0   XYZ
    dof ry rz
    limits (-20.0 10.0)
           (0.0 20.0)
  end
  begin
     id 18 
     name lhumerus
     direction 1 -4.48965e-011 -3.25313e-028   
     length 4.76468   
     axis 180 -30 -90   XYZ
    dof rx ry rz
    limits (-60.0 90.0)
           (-90.0 90.0)
           (-90.0 90.0)
  end
  begin
     id 19
     name lradius
     direction 1 -4.48969e-011 -2.8465e-028   
     length 3.52712   
     axis -180 -30 -90   XYZ
    dof rx
    limits (-10.0 170.0)
  end
  begin
     id 20
     name lwrist
     direction 1 -4.4896e-011 -7.78665e-028   
     length 1.76356   
     axis 1.91374e-015 90 90   XYZ
    dof ry
    limits (-180.0 0.0)
 end
  begin
     id 21 
     name lhand
     direction 1 -4.48959e-011 -1.55733e-027   
     length 0.859564   
     axis 9.9371e-016 90 90   XYZ
    dof rx rz
    limits (-90.0 90.0)
           (-45.0 45.0)
  end
  begin
     id 22 
     name lfingers
     direction 1 -4.48965e-011 -3.11466e-027   
     length 0.693002   
     axis 1.98742e-015 90 90   XYZ
    dof rx
    limits (0.0 90.0)
  end
  begin
     id 23
     name lthumb
     direction 0.707107 -6.34948e-011 0.707107   
     length 0.995017   
     axis -90 45 2.85299e-015   XYZ
    dof rx rz
    limits (-45.0 45.0)
           (-45.0 45.0)
  end
  begin
     id 24 
     name rclavicle
     direction -0.899388 0.348209 -0.264294   
     length 3.68366  
     axis 0 0 0   XYZ 
    dof ry rz
    limits (-10.0 20.0)
           (-20.0 0.0)
  end
  begin
     id 25 
     name rhumerus
     direction -1 -4.48965e-011 -3.01536e-027  
     length 4.90577   
     axis 180 30 90   XYZ
    dof rx ry rz
    limits (-90.0 60.0)
           (-90.0 90.0)
           (-90.0 90.0)
  end
  begin
     id 26 
     name rradius
     direction -1 -4.48966e-011 3.93291e-027   
     length 3.42692   
     axis -180 30 90   XYZ
    dof rx
    limits (-10.0 170.0)
  end
  begin
     id 27 
     name rwrist
     direction -1 -4.48969e-011 -7.78665e-028   
     length 1.71346   
     axis 1.91374e-015 -90 -90   XYZ
    dof ry
    limits (-180.0 0.0)
  end
  begin
     id 28
     name rhand
     direction -1 -4.48967e-011 -1.55733e-027   
     length 0.740957   
     axis 9.9371e-016 -90 -90   XYZ
    dof rx rz
    limits (-90.0 90.0)
           (-45.0 45.0)
  end
  begin
     id 29
     name rfingers
     direction -1 -4.48949e-011 -3.11466e-027   
     length 0.597378   
     axis 1.98742e-015 -90 -90   XYZ
    dof rx
    limits (0.0 90.0)
  end
  begin
     id 30
     name rthumb
     direction -0.707107 -6.34931e-011 0.707107   
     length 0.857719   
     axis -90 -45 -2.85299e-015   XYZ
    dof rx rz
    limits (-45.0 45.0)
           (-45.0 45.0)
  end
:hierarchy
  begin
    root lhipjoint rhipjoint lowerback
    lhipjoint lfemur
    lfemur ltibia
    ltibia lfoot
    lfoot ltoes
    rhipjoint rfemur
    rfemur rtibia
    rtibia rfoot
    rfoot rtoes
    lowerback upperback
    upperback thorax
    thorax lowerneck lclavicle rclavicle
    lowerneck upperneck
    upperneck head
    lclavicle lhumerus
    lhumerus lradius
    lradius lwrist
    lwrist lhand lthumb
    lhand lfingers
    rclavicle rhumerus
    rhumerus rradius
    rradius rwrist
    rwrist rhand rthumb
    rhand rfingers
  end

#!OML:ASF E:\I on waltz\AllaLogoMonkeySwing\Project 1\Capture day 1\Session 1\Subject1.ASF
:FULLY-SPECIFIED
:DEGREES
65
root 1.76504 15.3913 1.25738 23.2504 0.899413 -1.284
lowerback 39.426 0.964247 -0.679405
upperback 9.71284 1.12005 1.796
thorax -8.40189 0.475893 1.82059
lowerneck -14.3559 1.28246 -0.502064
upperneck 18.9348 2.57199 -3.33878
head 8.29277 0.834078 -0.742583
rclavicle 3.97569e-015 -5.66536e-015
rhumerus -12.3654 28.16 -75.1068
rradius 88.3171
rwrist 17.4529
rhand -14.4614 -35.5623
rfingers 7.12502
rthumb 11.6842 -65.2165
lclavicle 3.97569e-015 -5.66536e-015
lhumerus -20.4416 -22.6357 89.43
lradius 90.3258
lwrist -11.9619
lhand -20.9944 -23.8241
lfingers 7.12502
lthumb 5.37978 6.08758
rfemur -71.7146 -13.3865 24.5693
rtibia 68.1771
rfoot -18.3202 -1.18902
rtoes 15.3864
lfemur -69.518 10.9155 -21.9948
ltibia 68.5111
lfoot -26.219 -7.25196
ltoes -20.3496
66
root 1.7666 15.108 1.17997 23.1705 0.87054 -1.13415
lowerback 40.5143 0.9611 -0.83548
upperback 9.84369 1.04576 1.75704
thorax -8.59882 0.43987 1.88434
lowerneck -14.2757 1.22087 -1.17391
upperneck 18.2895 2.58932 -3.20752
head 8.05379 0.820799 -0.58516
rclavicle 7.95139e-016 -3.57812e-015
rhumerus -13.2065 28.3809 -74.7626
rradius 91.1781
rwrist 19.4849
rhand -15.2543 -34.5351
rfingers 7.12502
rthumb 10.9195 -64.2311
lclavicle 7.95139e-016 -3.57812e-015
lhumerus -21.4324 -23.2233 89.6937
lradius 93.4327
lwrist -13.5568
lhand -21.1264 -24.4607
lfingers 7.12502
lthumb 5.2523 5.45425
rfemur -74.1724 -13.8093 24.7768
rtibia 71.5489
rfoot -19.2351 -1.10497
rtoes 15.1848
lfemur -71.8858 11.0699 -22.3581
ltibia 71.9419
lfoot -27.1584 -7.18875
ltoes -20.2923
67
root 1.76436 14.8153 1.10868 23.0052 0.835935 -1.29375
lowerback 41.4535 1.00369 -0.788815
upperback 10.0132 1.10211 1.72839
thorax -8.69712 0.461013 1.80188
lowerneck -14.2455 1.24395 -1.0504
upperneck 17.9716 2.61961 -3.40305
head 7.94746 0.830712 -0.666892
rclavicle 0 -1.13307e-014
rhumerus -14.0522 28.1304 -74.6372
rradius 94.1083
rwrist 21.3019
rhand -16.0432 -33.6379
rfingers 7.12502
rthumb 10.1585 -63.3727
lclavicle 0 -1.13307e-014
lhumerus -22.408 -23.747 89.9646
lradius 96.5103
lwrist -15.023
lhand -21.0623 -25.3275
lfingers 7.12502
lthumb 5.31422 4.58585
rfemur -76.4817 -13.9508 25.2019
rtibia 74.8795
rfoot -20.1026 -1.18454
rtoes 14.3586
lfemur -74.2259 11.3725 -22.3543
ltibia 75.3884
lfoot -27.9562 -7.27853
ltoes -19.8539
68
root 1.75845 14.5169 1.04273 22.896 0.770719 -1.51406
lowerback 42.0453 1.09249 -0.824012
upperback 10.283 1.18429 1.73173
thorax -8.57386 0.49211 1.78726
lowerneck -14.1605 1.31022 -0.561181
upperneck 17.5932 2.60357 -3.50821
head 7.81295 0.853385 -0.784198
rclavicle 3.18055e-015 -5.86415e-015
rhumerus -14.6526 27.6886 -74.4991
rradius 97.0416
rwrist 22.874
rhand -16.3986 -32.9121
rfingers 7.12502
rthumb 9.81562 -62.6633
lclavicle 3.18055e-015 -5.86415e-015
lhumerus -23.3042 -23.9988 90.2852
lradius 99.6152
lwrist -16.4207
lhand -21.0683 -26.3005
lfingers 7.12502
lthumb 5.30841 3.61301
rfemur -78.8374 -13.9585 25.6362
rtibia 78.1554
rfoot -20.8917 -1.21981
rtoes 14.5974
lfemur -76.6106 11.7142 -22.3047
ltibia 78.7736
lfoot -28.715 -7.37416
ltoes -19.2777
69
root 1.75496 14.2125 0.979103 22.8447 0.74264 -1.69892
lowerback 42.5114 1.15391 -0.795655
upperback 10.4708 1.25907 1.71785
thorax -8.50046 0.521763 1.72465
lowerneck -13.9115 1.20969 -0.557261
upperneck 16.7679 2.43462 -3.52847
head 7.49421 0.789389 -0.80933
rclavicle 7.65321e-015 7.05686e-015
rhumerus -15.4027 27.1624 -74.4069
rradius 99.9746
rwrist 23.4992
rhand -17.1505 -31.9721
rfingers 7.12502
rthumb 9.0901 -61.7562
lclavicle 7.65321e-015 7.05686e-015
lhumerus -24.3244 -24.1592 90.7133
lradius 102.788
lwrist -17.5921
lhand -21.1617 -27.1242
lfingers 7.12502
lthumb 5.21823 2.79153
rfemur -81.2812 -14.0426 26.101
rtibia 81.365
rfoot -21.6827 -1.37943
rtoes 13.8879
lfemur -79.0314 11.9702 -22.2979
ltibia 82.0973
lfoot -29.4696 -7.31256
ltoes -18.821
